<?xml version="1.0" standalone="no"?>
<!DOCTYPE svg PUBLIC "-//W3C//DTD SVG 20010904//EN"
 "http://www.w3.org/TR/2001/REC-SVG-20010904/DTD/svg10.dtd">
<svg version="1.0" xmlns="http://www.w3.org/2000/svg"
 width="938.000000pt" height="938.000000pt" viewBox="0 0 938.000000 938.000000"
 preserveAspectRatio="xMidYMid meet">
<metadata>
Created by potrace 1.14, written by Peter Selinger 2001-2017
</metadata>
<g transform="translate(0.000000,938.000000) scale(0.100000,-0.100000)"
fill="#000000" stroke="none">
<path d="M4517 9204 c-1 -1 -56 -5 -122 -8 -66 -4 -136 -9 -155 -11 -19 -3
-55 -7 -80 -10 -108 -13 -130 -16 -215 -31 -49 -8 -101 -17 -115 -19 -147 -25
-469 -114 -665 -184 -621 -221 -1172 -564 -1640 -1020 -126 -122 -212 -213
-281 -297 -23 -27 -51 -60 -62 -74 -206 -243 -429 -590 -584 -910 -149 -307
-305 -764 -362 -1060 -12 -65 -26 -138 -30 -170 -3 -19 -8 -46 -10 -60 -8 -41
-14 -91 -21 -155 -4 -33 -8 -71 -11 -85 -23 -142 -23 -771 0 -910 5 -25 10
-67 21 -165 3 -27 10 -70 15 -95 5 -25 12 -61 14 -80 23 -162 91 -424 170
-663 127 -379 339 -800 569 -1127 85 -122 216 -294 264 -347 15 -17 48 -55 73
-84 130 -153 403 -410 590 -555 41 -32 80 -62 85 -67 38 -32 233 -163 350
-234 270 -166 546 -299 850 -410 106 -39 405 -127 470 -138 17 -3 57 -12 90
-20 58 -14 168 -35 212 -40 12 -2 34 -6 50 -9 15 -3 47 -8 71 -11 23 -3 60 -7
82 -10 22 -3 57 -7 78 -10 230 -28 706 -28 945 1 151 17 192 23 262 36 33 5
74 12 90 15 271 41 711 176 1007 309 721 324 1326 802 1790 1414 249 329 459
702 608 1078 34 87 117 324 124 357 1 6 10 37 20 70 10 33 19 67 21 75 2 8 12
51 23 95 23 92 33 139 66 315 15 82 18 110 32 230 3 30 7 66 10 80 9 55 18
295 18 475 -1 200 -10 368 -28 510 -3 17 -7 53 -11 80 -6 46 -28 183 -40 246
-10 53 -66 295 -75 324 -5 17 -30 98 -55 180 -92 296 -233 620 -386 887 -71
123 -175 288 -219 348 -109 146 -175 233 -184 243 -6 7 -29 35 -51 62 -253
317 -639 660 -1020 907 -183 118 -238 150 -445 253 -273 137 -506 226 -845
324 -167 48 -496 111 -660 126 -27 3 -61 7 -75 10 -69 12 -612 29 -623 19z
m568 -88 c115 -11 256 -30 345 -46 30 -5 73 -12 95 -16 72 -10 286 -64 445
-110 477 -141 977 -390 1384 -693 253 -188 541 -458 746 -701 30 -36 57 -67
60 -70 3 -3 25 -32 50 -65 25 -33 53 -69 63 -80 32 -35 242 -356 302 -460 134
-236 283 -570 362 -815 35 -111 74 -237 78 -257 1 -10 10 -45 18 -78 9 -33 18
-71 21 -85 2 -14 9 -45 15 -70 14 -62 49 -274 57 -340 3 -30 7 -66 10 -80 2
-14 6 -61 9 -105 4 -44 8 -100 10 -125 5 -60 6 -464 1 -515 -3 -22 -7 -80 -10
-129 -23 -336 -123 -791 -248 -1131 -191 -518 -455 -975 -797 -1380 -88 -103
-372 -391 -479 -484 -520 -456 -1171 -792 -1857 -962 -88 -22 -171 -42 -185
-44 -62 -13 -260 -44 -310 -50 -30 -3 -66 -8 -80 -10 -14 -2 -61 -7 -105 -11
-44 -3 -96 -8 -115 -10 -47 -5 -506 -5 -550 0 -19 2 -75 7 -125 10 -49 4 -101
9 -115 11 -14 2 -50 7 -80 10 -62 7 -276 43 -302 51 -10 3 -30 7 -45 10 -163
28 -542 146 -766 238 -407 167 -844 428 -1138 680 -19 17 -60 51 -90 76 -86
71 -378 365 -471 475 -73 86 -198 250 -304 397 -106 148 -313 529 -399 733
-69 163 -140 350 -150 395 -2 8 -12 42 -24 75 -11 33 -24 78 -30 100 -5 22
-16 67 -26 100 -16 59 -21 80 -29 120 -2 11 -9 40 -14 65 -6 25 -13 61 -16 80
-3 19 -8 46 -10 60 -3 14 -7 41 -10 60 -3 19 -8 45 -10 58 -7 32 -27 206 -32
272 -2 30 -6 84 -9 120 -6 71 -6 457 0 530 2 25 6 82 9 127 9 122 55 435 81
543 3 14 8 36 11 50 3 14 12 52 21 85 8 33 16 65 18 70 10 46 23 90 66 220 62
194 70 214 137 375 361 869 1011 1618 1831 2110 199 119 573 298 736 351 22 7
45 16 50 20 9 6 178 59 325 103 64 19 297 73 354 82 21 3 48 8 60 10 11 2 41
7 66 9 25 3 52 8 61 10 8 3 40 8 70 11 30 3 68 7 84 9 17 2 70 7 120 10 49 4
92 9 95 11 5 5 604 -4 665 -10z"/>
<path d="M2745 7650 c-1 -3 -3 -1081 -2 -2396 l0 -2391 554 0 553 0 0 21 c1
11 2 311 3 666 l2 645 503 1 c354 1 506 -2 516 -10 12 -9 312 -439 685 -981
42 -61 112 -162 156 -226 l80 -116 593 0 c325 0 592 2 592 4 0 3 -93 138 -207
301 -114 163 -252 362 -307 442 -56 80 -115 165 -133 190 -17 25 -66 95 -108
155 -42 61 -103 148 -136 195 -33 47 -86 123 -118 170 l-59 86 99 47 c315 154
581 415 724 712 84 175 133 354 152 555 12 133 5 462 -11 489 -2 3 -7 30 -11
60 -4 29 -20 99 -35 156 -70 249 -201 472 -386 658 -67 69 -205 187 -217 187
-2 0 -34 20 -70 44 -149 100 -428 216 -627 262 -59 13 -162 34 -195 39 -112
17 -179 25 -251 31 -92 8 -2334 12 -2339 4z m2155 -904 c52 -3 109 -8 125 -11
17 -3 44 -8 60 -11 332 -60 580 -266 655 -544 31 -114 42 -297 25 -405 -48
-302 -218 -511 -503 -615 -44 -16 -94 -32 -109 -35 -176 -37 -187 -37 -745
-42 l-556 -5 0 836 0 835 121 3 c189 5 821 0 927 -6z"/>
<path d="M3933 2597 c-3 -5 -6 -526 -3 -654 0 -21 5 -23 60 -23 l60 0 0 138
c0 155 10 202 47 232 34 27 96 27 123 0 22 -22 22 -20 22 -223 l0 -148 62 3
61 3 0 186 c0 159 -3 192 -19 227 -27 60 -84 82 -192 74 -11 -1 -39 -18 -62
-38 l-42 -36 0 134 0 133 -56 0 c-31 0 -58 -3 -61 -8z"/>
<path d="M4511 2593 c-20 -16 -26 -41 -22 -84 1 -22 55 -47 86 -41 28 5 52 29
56 57 10 68 -67 111 -120 68z"/>
<path d="M2776 2562 c-3 -3 -6 -149 -6 -324 l0 -318 65 0 65 0 0 135 0 136 56
-2 c81 -3 95 -18 139 -154 l37 -115 64 0 c35 0 64 3 64 8 0 17 -80 236 -95
258 -8 13 -25 29 -37 35 -21 11 -21 12 13 29 74 39 102 96 87 177 -10 58 -33
90 -82 115 -36 19 -61 22 -203 24 -89 1 -164 -1 -167 -4z m281 -106 c27 -6 34
-14 44 -48 13 -50 -3 -95 -38 -109 -13 -5 -56 -9 -94 -9 l-69 0 0 88 0 87 63
0 c34 -1 77 -5 94 -9z"/>
<path d="M5406 2561 c-1 -3 -2 -148 -2 -321 l1 -315 171 0 c170 0 171 0 229
30 108 56 154 145 151 294 -3 106 -25 177 -72 225 -37 39 -93 71 -140 82 -37
8 -334 13 -338 5z m331 -125 c64 -33 92 -101 88 -213 -3 -82 -29 -139 -76
-167 -30 -17 -141 -34 -191 -28 l-28 3 0 215 0 214 88 -4 c54 -2 100 -10 119
-20z"/>
<path d="M4820 2511 c-34 -6 -35 -8 -38 -53 -3 -47 -4 -48 -38 -48 -18 0 -35
-3 -35 -7 -1 -5 -2 -27 -3 -50 l-2 -43 38 0 38 0 0 -142 c0 -158 10 -193 63
-232 35 -26 146 -29 188 -6 27 15 27 15 12 62 -14 43 -17 46 -40 37 -37 -14
-68 -11 -85 9 -13 13 -16 44 -17 145 l-1 127 70 0 70 0 0 50 0 50 -71 0 -70 0
2 53 c3 49 2 52 -21 53 -14 1 -41 -1 -60 -5z"/>
<path d="M3505 2409 c-97 -23 -164 -112 -169 -225 -8 -163 75 -263 222 -270
159 -7 253 86 253 251 0 82 -20 134 -71 186 -46 46 -70 56 -159 64 -20 2 -54
-1 -76 -6z m136 -122 c34 -28 47 -69 44 -132 -5 -85 -32 -129 -88 -139 -29 -5
-85 10 -103 29 -34 33 -43 161 -15 213 29 55 114 70 162 29z"/>
<path d="M6214 2405 c-95 -29 -154 -112 -158 -225 -5 -114 37 -200 117 -242
58 -30 185 -32 239 -3 40 21 93 85 81 95 -5 4 -25 17 -45 29 -36 22 -36 22
-51 2 -18 -27 -75 -49 -112 -44 -46 6 -73 23 -90 58 -28 61 -30 61 141 60 148
-1 157 0 164 20 15 42 -7 157 -38 192 -50 58 -163 84 -248 58z m141 -110 c22
-21 30 -49 23 -72 -2 -4 -46 -8 -99 -8 -104 0 -107 2 -80 54 30 55 114 69 156
26z"/>
<path d="M4499 2375 c0 -19 -1 -118 -1 -220 0 -102 1 -196 1 -210 1 -24 4 -25
61 -25 l60 0 0 245 0 245 -60 0 -60 0 -1 -35z"/>
<path d="M6555 2393 c3 -10 26 -72 50 -138 24 -66 62 -167 83 -225 l40 -105
74 -3 73 -3 88 238 c48 131 87 241 87 244 0 4 -27 7 -59 8 -58 0 -59 0 -71
-32 -6 -17 -32 -90 -57 -162 -53 -154 -59 -166 -67 -145 -17 46 -116 333 -116
336 0 2 -30 4 -66 4 -59 0 -65 -2 -59 -17z"/>
<path d="M5152 2050 c-37 -22 -45 -60 -22 -98 22 -36 60 -44 103 -23 26 13 33
23 35 51 4 43 -13 67 -54 79 -25 7 -39 5 -62 -9z"/>
</g>
</svg>
